<svg xmlns="http://www.w3.org/2000/svg" xmlns:xlink="http://www.w3.org/1999/xlink" width="500" zoomAndPan="magnify" viewBox="0 0 375 374.999991" height="500" preserveAspectRatio="xMidYMid meet" version="1.0"><defs><clipPath id="84bf633a5b"><path d="M 42 0 L 332.933594 0 L 332.933594 374.914062 L 42 374.914062 Z M 42 0 " clip-rule="nonzero"/></clipPath></defs><rect x="-37.5" width="450" fill="#ffffff" y="-37.499999" height="449.999989" fill-opacity="1"/><rect x="-37.5" width="450" fill="#ffffff" y="-37.499999" height="449.999989" fill-opacity="1"/><g clip-path="url(#84bf633a5b)"><path fill="#000000" d="M 180.78125 -0.0859375 C 264.878906 -0.0859375 332.992188 68.027344 332.992188 152.347656 C 332.992188 236.441406 264.878906 304.558594 180.78125 304.558594 C 173.503906 304.558594 166.230469 304.109375 159.402344 303.132812 L 198.636719 257.296875 C 244.171875 237.117188 276.128906 191.734375 276.128906 138.695312 C 276.128906 67.054688 218.140625 9.289062 146.5 9.289062 C 138.246094 9.289062 130.519531 9.964844 122.792969 11.390625 C 140.648438 4.113281 160.152344 -0.0859375 180.78125 -0.0859375 Z M 164.128906 354.597656 L 210.863281 354.597656 C 216.492188 354.597656 220.992188 359.324219 220.992188 364.722656 C 220.992188 370.351562 216.566406 375.074219 210.863281 375.074219 L 164.128906 375.074219 C 158.5 375.074219 154 370.351562 154 364.722656 C 154 359.246094 158.5 354.597656 164.128906 354.597656 Z M 148.375 319.5625 L 226.617188 319.5625 C 232.246094 319.5625 236.96875 323.988281 236.96875 329.691406 C 236.96875 335.316406 232.246094 340.042969 226.617188 340.042969 L 148.375 340.042969 C 142.75 340.042969 138.023438 335.316406 138.023438 329.691406 C 138.097656 324.0625 142.75 319.5625 148.375 319.5625 Z M 104.265625 284.078125 C 77.03125 268.101562 55.203125 243.945312 42 215.0625 C 58.652344 238.09375 82.882812 255.199219 110.789062 263.226562 Z M 104.265625 284.078125 " fill-opacity="1" fill-rule="nonzero"/></g><path fill="#ea6001" d="M 205.011719 101.109375 L 131.496094 101.109375 L 89.410156 223.765625 L 137.570312 223.765625 L 96.011719 355.722656 L 236.96875 191.808594 L 174.03125 191.808594 Z M 205.011719 101.109375 " fill-opacity="1" fill-rule="nonzero"/><path fill="#ea6001" d="M 148.898438 49.722656 L 222.640625 49.722656 L 209.964844 86.558594 L 136.445312 86.558594 Z M 148.898438 49.722656 " fill-opacity="1" fill-rule="nonzero"/></svg>