<svg xmlns="http://www.w3.org/2000/svg" xmlns:xlink="http://www.w3.org/1999/xlink" width="236" zoomAndPan="magnify" viewBox="0 0 177 53.25" height="71" preserveAspectRatio="xMidYMid meet" version="1.0"><defs><g/><clipPath id="73164dc9ec"><path d="M 139.28125 2.480469 L 175.519531 2.480469 L 175.519531 49.0625 L 139.28125 49.0625 Z M 139.28125 2.480469 " clip-rule="nonzero"/></clipPath></defs><g fill="#ffffff" fill-opacity="1"><g transform="translate(13.931353, 35.891578)"><g><path d="M 9.203125 0.359375 C 7.578125 0.359375 6.003906 0.140625 4.484375 -0.296875 C 2.960938 -0.742188 1.742188 -1.320312 0.828125 -2.03125 L 2.4375 -5.609375 C 3.320312 -4.960938 4.367188 -4.441406 5.578125 -4.046875 C 6.796875 -3.660156 8.015625 -3.46875 9.234375 -3.46875 C 10.578125 -3.46875 11.570312 -3.664062 12.21875 -4.0625 C 12.875 -4.46875 13.203125 -5.003906 13.203125 -5.671875 C 13.203125 -6.160156 13.007812 -6.566406 12.625 -6.890625 C 12.238281 -7.210938 11.742188 -7.472656 11.140625 -7.671875 C 10.546875 -7.867188 9.742188 -8.082031 8.734375 -8.3125 C 7.160156 -8.6875 5.875 -9.0625 4.875 -9.4375 C 3.875 -9.8125 3.015625 -10.410156 2.296875 -11.234375 C 1.585938 -12.054688 1.234375 -13.148438 1.234375 -14.515625 C 1.234375 -15.710938 1.554688 -16.796875 2.203125 -17.765625 C 2.847656 -18.734375 3.820312 -19.5 5.125 -20.0625 C 6.425781 -20.632812 8.019531 -20.921875 9.90625 -20.921875 C 11.21875 -20.921875 12.5 -20.765625 13.75 -20.453125 C 15.007812 -20.140625 16.109375 -19.691406 17.046875 -19.109375 L 15.578125 -15.484375 C 13.671875 -16.566406 11.769531 -17.109375 9.875 -17.109375 C 8.539062 -17.109375 7.554688 -16.890625 6.921875 -16.453125 C 6.285156 -16.023438 5.96875 -15.457031 5.96875 -14.75 C 5.96875 -14.050781 6.332031 -13.53125 7.0625 -13.1875 C 7.800781 -12.84375 8.925781 -12.503906 10.4375 -12.171875 C 12 -11.796875 13.28125 -11.421875 14.28125 -11.046875 C 15.28125 -10.679688 16.132812 -10.09375 16.84375 -9.28125 C 17.5625 -8.476562 17.921875 -7.394531 17.921875 -6.03125 C 17.921875 -4.851562 17.59375 -3.78125 16.9375 -2.8125 C 16.28125 -1.84375 15.296875 -1.070312 13.984375 -0.5 C 12.671875 0.0703125 11.078125 0.359375 9.203125 0.359375 Z M 9.203125 0.359375 "/></g></g></g><g fill="#ffffff" fill-opacity="1"><g transform="translate(38.843944, 35.891578)"><g><path d="M 18.375 -3.828125 L 18.375 0 L 2.4375 0 L 2.4375 -20.578125 L 17.984375 -20.578125 L 17.984375 -16.75 L 7.171875 -16.75 L 7.171875 -12.28125 L 16.71875 -12.28125 L 16.71875 -8.578125 L 7.171875 -8.578125 L 7.171875 -3.828125 Z M 18.375 -3.828125 "/></g></g></g><g fill="#ffffff" fill-opacity="1"><g transform="translate(64.725917, 35.891578)"><g><path d="M 15.546875 0 L 11.578125 -5.734375 L 7.203125 -5.734375 L 7.203125 0 L 2.4375 0 L 2.4375 -20.578125 L 11.34375 -20.578125 C 13.164062 -20.578125 14.75 -20.269531 16.09375 -19.65625 C 17.4375 -19.050781 18.46875 -18.191406 19.1875 -17.078125 C 19.914062 -15.960938 20.28125 -14.640625 20.28125 -13.109375 C 20.28125 -11.578125 19.910156 -10.257812 19.171875 -9.15625 C 18.441406 -8.050781 17.398438 -7.203125 16.046875 -6.609375 L 20.65625 0 Z M 15.453125 -13.109375 C 15.453125 -14.265625 15.078125 -15.148438 14.328125 -15.765625 C 13.585938 -16.378906 12.503906 -16.6875 11.078125 -16.6875 L 7.203125 -16.6875 L 7.203125 -9.515625 L 11.078125 -9.515625 C 12.503906 -9.515625 13.585938 -9.828125 14.328125 -10.453125 C 15.078125 -11.085938 15.453125 -11.972656 15.453125 -13.109375 Z M 15.453125 -13.109375 "/></g></g></g><g fill="#ffffff" fill-opacity="1"><g transform="translate(92.487917, 35.891578)"><g><path d="M 2.4375 -20.578125 L 7.203125 -20.578125 L 7.203125 0 L 2.4375 0 Z M 2.4375 -20.578125 "/></g></g></g><g fill="#ffffff" fill-opacity="1"><g transform="translate(108.294129, 35.891578)"><g><path d="M 12.28125 0.359375 C 10.1875 0.359375 8.289062 -0.09375 6.59375 -1 C 4.90625 -1.914062 3.570312 -3.179688 2.59375 -4.796875 C 1.625 -6.421875 1.140625 -8.25 1.140625 -10.28125 C 1.140625 -12.320312 1.625 -14.148438 2.59375 -15.765625 C 3.570312 -17.378906 4.90625 -18.640625 6.59375 -19.546875 C 8.289062 -20.460938 10.195312 -20.921875 12.3125 -20.921875 C 14.09375 -20.921875 15.703125 -20.609375 17.140625 -19.984375 C 18.585938 -19.359375 19.800781 -18.457031 20.78125 -17.28125 L 17.71875 -14.453125 C 16.332031 -16.066406 14.609375 -16.875 12.546875 -16.875 C 11.273438 -16.875 10.140625 -16.59375 9.140625 -16.03125 C 8.140625 -15.46875 7.359375 -14.6875 6.796875 -13.6875 C 6.242188 -12.695312 5.96875 -11.5625 5.96875 -10.28125 C 5.96875 -9.007812 6.242188 -7.875 6.796875 -6.875 C 7.359375 -5.875 8.140625 -5.09375 9.140625 -4.53125 C 10.140625 -3.976562 11.273438 -3.703125 12.546875 -3.703125 C 14.609375 -3.703125 16.332031 -4.515625 17.71875 -6.140625 L 20.78125 -3.328125 C 19.800781 -2.128906 18.582031 -1.210938 17.125 -0.578125 C 15.675781 0.046875 14.0625 0.359375 12.28125 0.359375 Z M 12.28125 0.359375 "/></g></g></g><g clip-path="url(#73164dc9ec)"><path fill="#ffffff" d="M 156.625 2.46875 C 167.128906 2.46875 175.640625 10.980469 175.640625 21.515625 C 175.640625 32.023438 167.128906 40.53125 156.625 40.53125 C 155.714844 40.53125 154.804688 40.476562 153.953125 40.355469 L 158.855469 34.628906 C 164.542969 32.105469 168.535156 26.4375 168.535156 19.808594 C 168.535156 10.859375 161.292969 3.640625 152.339844 3.640625 C 151.308594 3.640625 150.34375 3.726562 149.378906 3.90625 C 151.609375 2.996094 154.046875 2.46875 156.625 2.46875 Z M 154.542969 46.78125 L 160.382812 46.78125 C 161.085938 46.78125 161.648438 47.375 161.648438 48.046875 C 161.648438 48.75 161.09375 49.339844 160.382812 49.339844 L 154.542969 49.339844 C 153.839844 49.339844 153.277344 48.75 153.277344 48.046875 C 153.277344 47.363281 153.839844 46.78125 154.542969 46.78125 Z M 152.574219 42.40625 L 162.351562 42.40625 C 163.054688 42.40625 163.644531 42.960938 163.644531 43.671875 C 163.644531 44.375 163.054688 44.964844 162.351562 44.964844 L 152.574219 44.964844 C 151.871094 44.964844 151.28125 44.375 151.28125 43.671875 C 151.292969 42.96875 151.871094 42.40625 152.574219 42.40625 Z M 147.066406 37.972656 C 143.664062 35.976562 140.933594 32.957031 139.285156 29.351562 C 141.367188 32.226562 144.394531 34.363281 147.878906 35.367188 Z M 147.066406 37.972656 " fill-opacity="1" fill-rule="nonzero"/></g><path fill="#ea6001" d="M 159.652344 15.113281 L 150.464844 15.113281 L 145.207031 30.4375 L 151.226562 30.4375 L 146.035156 46.921875 L 163.644531 26.445312 L 155.78125 26.445312 Z M 159.652344 15.113281 " fill-opacity="1" fill-rule="nonzero"/><path fill="#ea6001" d="M 152.640625 8.695312 L 161.855469 8.695312 L 160.269531 13.296875 L 151.085938 13.296875 Z M 152.640625 8.695312 " fill-opacity="1" fill-rule="nonzero"/></svg>