<svg xmlns="http://www.w3.org/2000/svg" viewBox="0 0 48 48" id="close"><g><path d="M4,20C4,12.46,4,8.69,6.34,6.34S12.46,4,20,4h8c7.54,0,11.31,0,13.66,2.34S44,12.46,44,20v8c0,7.54,0,11.31-2.34,13.66S35.54,44,28,44H20c-7.54,0-11.31,0-13.66-2.34S4,35.54,4,28Z"></path><path fill="#fff" d="M24,14.25A9.75,9.75,0,1,0,33.75,24,9.76,9.76,0,0,0,24,14.25Zm0,18A8.25,8.25,0,1,1,32.25,24,8.26,8.26,0,0,1,24,32.25Zm3.53-10.72L25.06,24l2.47,2.47a.75.75,0,0,1,0,1.06.75.75,0,0,1-1.06,0L24,25.06l-2.47,2.47a.75.75,0,0,1-1.06,0,.75.75,0,0,1,0-1.06L22.94,24l-2.47-2.47a.75.75,0,0,1,1.06-1.06L24,22.94l2.47-2.47a.75.75,0,0,1,1.06,1.06Z"></path></g></svg>