<?xml version="1.0" ?><!DOCTYPE svg  PUBLIC '-//W3C//DTD SVG 1.1//EN'  'http://www.w3.org/Graphics/SVG/1.1/DTD/svg11.dtd'><svg height="6.82666in" style="shape-rendering:geometricPrecision; text-rendering:geometricPrecision; image-rendering:optimizeQuality; fill-rule:evenodd; clip-rule:evenodd" viewBox="0 0 6.82666 6.82666" width="6.82666in" xml:space="preserve" xmlns="http://www.w3.org/2000/svg" xmlns:xlink="http://www.w3.org/1999/xlink"><defs><style type="text/css">
   <![CDATA[
    .fil1 {fill:#249535}
    .fil0 {fill:#2CB742}
    .fil2 {fill:white}
   ]]>
  </style></defs><g id="Layer_x0020_1"><path class="fil0" d="M6.82666 3.41333c0,1.88508 -1.52826,3.41333 -3.41333,3.41333 -1.88515,0 -3.41333,-1.52826 -3.41333,-3.41333 0,-1.88517 1.52817,-3.41333 3.41333,-3.41333 1.88508,0 3.41333,1.52818 3.41333,3.41333z"/><path class="fil1" d="M6.35917 3.41332c0,1.62687 -1.31896,2.94584 -2.94583,2.94584 -1.62688,0 -2.94583,-1.31897 -2.94583,-2.94584 0,-1.62687 1.31896,-2.94583 2.94583,-2.94583 1.62687,0 2.94583,1.31895 2.94583,2.94583z"/><path class="fil2" d="M3.31635 1.41565c-1.05644,0.0502402 -1.89005,0.930051 -1.88688,1.98762 0.000996063,0.322067 0.0787402,0.626165 0.215972,0.894819l-0.21061 1.02234c-0.0114409,0.0553386 0.0384685,0.103791 0.0934016,0.0907598l1.00178 -0.237315c0.25735,0.128177 0.5465,0.202217 0.852457,0.206921 1.0797,0.0164488 1.98002,-0.840815 2.01374,-1.9202 0.0360315,-1.157 -0.918886,-2.10028 -2.07985,-2.04494zm1.19535 3.0799c-0.293386,0.293386 -0.683484,0.454953 -1.09836,0.454953 -0.242949,0 -0.475575,-0.0545433 -0.691413,-0.162024l-0.139417 -0.0694882 -0.614264 0.145504 0.129244 -0.627618 -0.0686969 -0.134587c-0.112047,-0.219413 -0.168823,-0.456677 -0.168823,-0.705157 0,-0.414965 0.161567,-0.804992 0.454945,-1.09844 0.290728,-0.290724 0.687173,-0.454933 1.09843,-0.454933 0.414878,0 0.804976,0.161622 1.09835,0.454933 0.293386,0.293382 0.454953,0.68348 0.454953,1.09837 6.69291e-005,0.411252 -0.164138,0.807681 -0.454945,1.09849z"/><path class="fil2" d="M4.3761 3.82735l-0.384276 -0.110339c-0.0505,-0.0144685 -0.104909,-0.000133858 -0.141736,0.0373504l-0.0939252 0.0957165c-0.0396654,0.0403976 -0.0997598,0.0533661 -0.152189,0.0321417 -0.181787,-0.0735157 -0.564205,-0.413571 -0.661783,-0.583602 -0.0282283,-0.0490394 -0.0235433,-0.110319 0.0110315,-0.15515l0.0820472 -0.106094c0.032122,-0.0415787 0.0388701,-0.0974449 0.0176457,-0.145508l-0.16163 -0.365697c-0.0387362,-0.0875236 -0.150654,-0.113043 -0.223776,-0.0512205 -0.107209,0.0907559 -0.234476,0.228512 -0.249941,0.381228 -0.0272953,0.269248 0.088185,0.60865 0.524756,1.0162 0.504453,0.470799 0.908374,0.533016 1.17142,0.46928 0.149193,-0.0360984 0.268386,-0.180929 0.34361,-0.299524 0.0512953,-0.0809803 0.0107795,-0.188343 -0.081252,-0.21478z"/></g></svg>